<svg width="15" height="25" viewBox="0 0 15 25" fill="none" xmlns="http://www.w3.org/2000/svg">
<path d="M12.5112 24.9999C12.191 25.0008 11.8746 24.9419 11.5853 24.8276C11.296 24.7133 11.0411 24.5464 10.8394 24.3392L0.487562 13.626C0.17233 13.3065 0 12.9057 0 12.4921C0 12.0786 0.17233 11.6778 0.487562 11.3583L11.2038 0.645033C11.5676 0.280394 12.0903 0.0510867 12.6571 0.00755554C13.2238 -0.0359756 13.7881 0.109836 14.2257 0.412911C14.6634 0.715987 14.9387 1.1515 14.9909 1.62365C15.0432 2.09579 14.8682 2.56589 14.5044 2.93053L4.92407 12.5011L14.1829 22.0716C14.445 22.3337 14.6114 22.6528 14.6626 22.9913C14.7138 23.3297 14.6475 23.6733 14.4717 23.9814C14.2958 24.2894 14.0177 24.5491 13.6703 24.7296C13.3228 24.9101 12.9206 25.0039 12.5112 24.9999Z" fill="#EFEFEF"/>
</svg>
