<svg width="19" height="22" viewBox="0 0 19 22" fill="none" xmlns="http://www.w3.org/2000/svg">
<path d="M18.9756 4.52001C18.9756 4.90192 18.822 5.26819 18.5487 5.53825C18.2753 5.8083 17.9045 5.96001 17.5178 5.96001H16.789V18.92C16.789 19.6838 16.4818 20.4164 15.935 20.9565C15.3882 21.4966 14.6466 21.8 13.8734 21.8H5.12667C4.35341 21.8 3.61182 21.4966 3.06504 20.9565C2.51827 20.4164 2.21109 19.6838 2.21109 18.92V5.96001H1.4822C1.09557 5.96001 0.724778 5.8083 0.45139 5.53825C0.178002 5.26819 0.0244141 4.90192 0.0244141 4.52001V3.08001C0.0244141 2.6981 0.178002 2.33183 0.45139 2.06178C0.724778 1.79173 1.09557 1.64001 1.4822 1.64001H6.58445C6.58445 1.2581 6.73804 0.891831 7.01143 0.621778C7.28481 0.351726 7.65561 0.200012 8.04224 0.200012L10.9578 0.200012C11.3444 0.200012 11.7152 0.351726 11.9886 0.621778C12.262 0.891831 12.4156 1.2581 12.4156 1.64001H17.5178C17.9045 1.64001 18.2753 1.79173 18.5487 2.06178C18.822 2.33183 18.9756 2.6981 18.9756 3.08001V4.52001ZM3.8409 5.96001L3.66888 6.04497V18.92C3.66888 19.3019 3.82247 19.6682 4.09585 19.9382C4.36924 20.2083 4.74004 20.36 5.12667 20.36H13.8734C14.26 20.36 14.6308 20.2083 14.9042 19.9382C15.1776 19.6682 15.3312 19.3019 15.3312 18.92V6.04497L15.1591 5.96001H3.8409ZM1.4822 4.52001H17.5178V3.08001H1.4822V4.52001Z" fill="white"/>
</svg>
